# xmcd
#
# Track frame offsets: 
#        150
#        14117
#        25878
#        37479
#        49398
#        61551
#        73537
#        85472
#        96738
#        109514
#        121147
#        135567
#        148898
#        162095
#        174738
#        187971
#        200514
#        212170
#        225005
#        236635
#        249067
#        261371
#        273553
#        285721
#        299365
#        311352
#        323516
#
# Disc length: 4477 seconds
#
# Revision: 2
# Processed by: cddbd v1.5.2PL0 Copyright (c) Steve Scherf et al.
# Submitted via: ExactAudioCopy v1.1
#
DISCID=92117b1b
DTITLE=Earl Bostic - The Earl Bostic Story - Disc 2 - Earl Blows A Fus
DTITLE=e
DYEAR=2006
DGENRE=R&B
TTITLE0=Artistry By Bostic (mono)
TTITLE1=Scotch Jam (mono)
TTITLE2=Apollo Theatre Jump (mono)
TTITLE3=Serenade To Beauty (mono)
TTITLE4=Tiger Rag (mono)
TTITLE5=The Man I Love (1947) (mono)
TTITLE6=Temptation (mono)
TTITLE7=Bostic's Boogie Blues (mono)
TTITLE8=Joy Dust (mono)
TTITLE9=Wild Man (mono)
TTITLE10=Watch Where You Walk, Boy (mono)
TTITLE11=Blip Boogie (mono)
TTITLE12=From Midnight Till Dawn (mono)
TTITLE13=Swing Low Sweet Boogie (mono)
TTITLE14=Earl's Imagination (mono)
TTITLE15=Earl Blows A Fuse (mono)
TTITLE16=Nay! Nay! Go Away! (mono)
TTITLE17=Who Snuck The Wine In The Gravy (mono)
TTITLE18=Earl's Blues (mono)
TTITLE19=Sugar Hill Blues (mono)
TTITLE20=Choppin' It Down (mono)
TTITLE21=Filibuster (mono)
TTITLE22=No Name Blues (mono)
TTITLE23=Serenade (mono)
TTITLE24=Seven Steps (mono)
TTITLE25=Portrait Of A Faded Love (mono)
TTITLE26=Wrap Your Troubles In Dreams (mono)
EXTD=
EXTT0=
EXTT1=
EXTT2=
EXTT3=
EXTT4=
EXTT5=
EXTT6=
EXTT7=
EXTT8=
EXTT9=
EXTT10=
EXTT11=
EXTT12=
EXTT13=
EXTT14=
EXTT15=
EXTT16=
EXTT17=
EXTT18=
EXTT19=
EXTT20=
EXTT21=
EXTT22=
EXTT23=
EXTT24=
EXTT25=
EXTT26=
PLAYORDER=
